<?xml version="1.0" encoding="utf-8"?>
<!-- Generator: Adobe Illustrator 21.0.0, SVG Export Plug-In . SVG Version: 6.00 Build 0)  -->
<svg version="1.1" id="Layer_1" xmlns="http://www.w3.org/2000/svg" xmlns:xlink="http://www.w3.org/1999/xlink" x="0px" y="0px"
	 viewBox="-294 386.7 21.2 21.3" style="enable-background:new -294 386.7 21.2 21.3;" xml:space="preserve">
<style type="text/css">
	.st0{fill:#28336D;}
</style>
<path id="XMLID_218_" class="st0" d="M-283.4,406.89c-5.26,0-9.54-4.28-9.54-9.54c0-5.26,4.28-9.54,9.54-9.54
	c5.26,0,9.54,4.28,9.54,9.54C-273.86,402.61-278.14,406.89-283.4,406.89z M-283.4,388.63c-4.81,0-8.72,3.91-8.72,8.72
	c0,4.81,3.91,8.72,8.72,8.72s8.72-3.91,8.72-8.72C-274.68,392.54-278.59,388.63-283.4,388.63z M-283.53,402.83
	c-0.45,0-0.88-0.18-1.18-0.49c-0.32-0.34-0.47-0.78-0.43-1.26c0.06-0.63,0.18-1.26,0.3-1.86c0.05-0.27,0.1-0.54,0.15-0.81l0.07-0.37
	c0.06-0.32,0.12-0.62,0.14-0.93c0.02-0.2-0.01-0.28-0.02-0.3c0,0-0.02,0-0.06,0c-0.05,0-0.14,0-0.27,0.03l-0.37,0.06l-0.19-0.2
	c-0.2-0.29-0.26-0.56-0.17-0.8c0.06-0.16,0.21-0.37,0.6-0.47c0.13-0.03,0.27-0.08,0.41-0.12c0.33-0.1,0.66-0.21,1.02-0.23
	c-0.17-0.08-0.32-0.19-0.46-0.32c-0.32-0.32-0.5-0.76-0.5-1.2c0-0.94,0.72-1.68,1.64-1.68c0,0,0.01,0,0.01,0
	c0.43,0,0.84,0.17,1.15,0.47c0.32,0.32,0.49,0.74,0.49,1.2c0,0.88-0.66,1.61-1.51,1.69c0.2,0.09,0.38,0.23,0.52,0.4
	c0.32,0.38,0.45,0.92,0.37,1.52c-0.08,0.57-0.2,1.14-0.32,1.69c-0.05,0.25-0.11,0.5-0.16,0.76l-0.04,0.21
	c-0.06,0.29-0.12,0.58-0.16,0.87c-0.04,0.29-0.01,0.37,0,0.38c0,0,0,0,0,0c0.01,0,0.09,0.04,0.38,0.02l0.44-0.02l0.19,0.22
	c0.06,0.11,0.24,0.44,0.09,0.77c-0.09,0.21-0.27,0.35-0.55,0.43l0,0c-0.14,0.04-0.28,0.08-0.42,0.13c-0.34,0.11-0.7,0.23-1.09,0.25
	C-283.47,402.83-283.5,402.83-283.53,402.83z M-284.22,396.05c0.1,0.03,0.2,0.09,0.28,0.16c0.29,0.26,0.29,0.67,0.27,0.95
	c-0.03,0.35-0.09,0.69-0.15,1.02l-0.07,0.36c-0.05,0.27-0.1,0.55-0.15,0.82c-0.11,0.59-0.23,1.19-0.29,1.78
	c-0.02,0.24,0.05,0.46,0.2,0.63c0.16,0.17,0.39,0.25,0.64,0.24c0.25-0.01,0.52-0.09,0.8-0.19c-0.15-0.04-0.29-0.11-0.41-0.24
	c-0.27-0.29-0.25-0.71-0.2-1.05c0.05-0.3,0.11-0.61,0.17-0.91l0.04-0.21c0.05-0.26,0.11-0.51,0.16-0.77
	c0.12-0.54,0.24-1.09,0.31-1.63c0.05-0.36-0.02-0.68-0.19-0.88c-0.13-0.16-0.32-0.25-0.56-0.26
	C-283.63,395.88-283.92,395.96-284.22,396.05z M-282.85,392.68C-282.85,392.68-282.85,392.68-282.85,392.68
	c-0.48,0-0.83,0.38-0.83,0.87c0,0.23,0.09,0.46,0.26,0.63c0.16,0.16,0.34,0.26,0.57,0.24l0,0c0.45,0,0.83-0.4,0.83-0.88
	c0-0.24-0.09-0.46-0.26-0.62C-282.43,392.76-282.63,392.68-282.85,392.68z"/>
</svg>
