<?xml version="1.0" encoding="utf-8"?>
<!-- Generator: Adobe Illustrator 21.0.0, SVG Export Plug-In . SVG Version: 6.00 Build 0)  -->
<svg version="1.1" id="Layer_1" xmlns="http://www.w3.org/2000/svg" xmlns:xlink="http://www.w3.org/1999/xlink" x="0px" y="0px"
	 viewBox="-294 386.7 21.2 21.3" style="enable-background:new -294 386.7 21.2 21.3;" xml:space="preserve">
<style type="text/css">
	.st0{fill:#28336D;}
</style>
<g id="XMLID_272_">
	<g id="XMLID_273_">
		<path id="XMLID_306_" class="st0" d="M-285.58,391.79c0-0.15-0.13-0.28-0.28-0.28h-2.02c-0.15,0-0.28,0.13-0.28,0.28v1.87
			c0,0.15,0.13,0.28,0.28,0.28h2.02c0.15,0,0.28-0.13,0.28-0.28V391.79z M-286.14,393.37h-1.46v-1.31h1.46V393.37z"/>
		<path id="XMLID_303_" class="st0" d="M-278.64,391.79c0-0.15-0.13-0.28-0.28-0.28h-2.02c-0.15,0-0.28,0.13-0.28,0.28v1.87
			c0,0.15,0.13,0.28,0.28,0.28h2.02c0.15,0,0.28-0.13,0.28-0.28V391.79z M-279.2,393.37h-1.46v-1.31h1.46V393.37z"/>
		<path id="XMLID_300_" class="st0" d="M-282.11,391.79c0-0.15-0.13-0.28-0.28-0.28h-2.02c-0.15,0-0.28,0.13-0.28,0.28v1.87
			c0,0.15,0.13,0.28,0.28,0.28h2.02c0.15,0,0.28-0.13,0.28-0.28V391.79z M-282.67,393.37h-1.46v-1.31h1.46V393.37z"/>
		<path id="XMLID_297_" class="st0" d="M-285.58,395c0-0.15-0.13-0.28-0.28-0.28h-2.02c-0.15,0-0.28,0.13-0.28,0.28v1.87
			c0,0.15,0.13,0.28,0.28,0.28h2.02c0.15,0,0.28-0.13,0.28-0.28V395z M-286.14,396.58h-1.46v-1.31h1.46V396.58z"/>
		<path id="XMLID_294_" class="st0" d="M-278.64,395c0-0.15-0.13-0.28-0.28-0.28h-2.02c-0.15,0-0.28,0.13-0.28,0.28v1.87
			c0,0.15,0.13,0.28,0.28,0.28h2.02c0.15,0,0.28-0.13,0.28-0.28V395z M-279.2,396.58h-1.46v-1.31h1.46V396.58z"/>
		<path id="XMLID_291_" class="st0" d="M-282.11,395c0-0.15-0.13-0.28-0.28-0.28h-2.02c-0.15,0-0.28,0.13-0.28,0.28v1.87
			c0,0.15,0.13,0.28,0.28,0.28h2.02c0.15,0,0.28-0.13,0.28-0.28V395z M-282.67,396.58h-1.46v-1.31h1.46V396.58z"/>
		<path id="XMLID_288_" class="st0" d="M-285.86,397.97h-2.02c-0.15,0-0.28,0.13-0.28,0.28v1.87c0,0.15,0.13,0.28,0.28,0.28h2.02
			c0.15,0,0.28-0.13,0.28-0.28v-1.87C-285.58,398.09-285.71,397.97-285.86,397.97z M-286.14,399.83h-1.46v-1.31h1.46V399.83z"/>
		<path id="XMLID_285_" class="st0" d="M-278.92,397.97h-2.02c-0.15,0-0.28,0.13-0.28,0.28v1.87c0,0.15,0.13,0.28,0.28,0.28h2.02
			c0.15,0,0.28-0.13,0.28-0.28v-1.87C-278.64,398.09-278.76,397.97-278.92,397.97z M-279.2,399.83h-1.46v-1.31h1.46V399.83z"/>
		<path id="XMLID_282_" class="st0" d="M-282.39,397.97h-2.02c-0.15,0-0.28,0.13-0.28,0.28v1.87c0,0.15,0.13,0.28,0.28,0.28h2.02
			c0.15,0,0.28-0.13,0.28-0.28v-1.87C-282.11,398.09-282.24,397.97-282.39,397.97z M-282.67,399.83h-1.46v-1.31h1.46V399.83z"/>
		<path id="XMLID_277_" class="st0" d="M-274.72,404.05h-2.54v-13.76c0-0.15-0.13-0.28-0.28-0.28h-1.07c-0.15,0-0.28,0.13-0.28,0.28
			s0.13,0.28,0.28,0.28h0.79v13.48h-1.9v-2.71c0-0.15-0.13-0.28-0.28-0.28h-1.9c-0.15,0-0.28,0.13-0.28,0.28s0.13,0.28,0.28,0.28
			h0.35v2.43h-3.7v-2.43h2.14c0.15,0,0.28-0.13,0.28-0.28s-0.13-0.28-0.28-0.28h-3.69c-0.15,0-0.28,0.13-0.28,0.28v2.71h-1.9v-1.77
			c0-0.15-0.13-0.28-0.28-0.28s-0.28,0.13-0.28,0.28v1.77h-2.54c-0.48,0-0.88,0.39-0.88,0.88s0.39,0.88,0.88,0.88h17.37
			c0.48,0,0.88-0.39,0.88-0.88S-274.23,404.05-274.72,404.05z M-280.99,401.63h0.71v2.43h-0.71V401.63z M-286.52,401.63h0.71v2.43
			h-0.71V401.63z M-274.72,405.25h-17.37c-0.18,0-0.32-0.14-0.32-0.32s0.14-0.32,0.32-0.32h17.37c0.18,0,0.32,0.14,0.32,0.32
			S-274.54,405.25-274.72,405.25z"/>
		<path id="XMLID_274_" class="st0" d="M-289.26,401.37c0.15,0,0.28-0.13,0.28-0.28v-10.52h9.14c0.15,0,0.28-0.13,0.28-0.28
			s-0.13-0.28-0.28-0.28h-5.66v-0.84c0-0.15-0.13-0.28-0.28-0.28h-2.24c-0.15,0-0.28,0.13-0.28,0.28v0.84h-0.95
			c-0.15,0-0.28,0.13-0.28,0.28v10.8C-289.54,401.25-289.42,401.37-289.26,401.37L-289.26,401.37z M-287.75,389.45h1.68v0.56h-1.68
			V389.45z"/>
	</g>
</g>
</svg>
