<svg enable-background="new -294 386.7 21.2 21.3" viewBox="-294 386.7 21.2 21.3" xmlns="http://www.w3.org/2000/svg"><g fill="#28336d"><path d="m-274.18 398.62h-.32v-.95c0-.63-.38-1.2-.95-1.45v-4.9c0-.13-.07-.24-.19-.29.12-.2.19-.43.19-.66 0-.7-.57-1.27-1.27-1.27s-1.27.57-1.27 1.27c0 .22.06.44.18.64h-11.16c.11-.19.18-.41.18-.64 0-.7-.57-1.27-1.27-1.27s-1.27.57-1.27 1.27c0 .23.07.46.19.66-.12.05-.19.16-.19.29v4.9c-.58.25-.95.82-.95 1.45v.95h-.32c-.18 0-.32.14-.32.32v4.45c0 .18.14.32.32.32h.32v1.59c0 .18.14.32.32.32h1.27c.18 0 .32-.14.32-.32v-1.59h13.99v1.59c0 .18.14.32.32.32h1.27c.18 0 .32-.14.32-.32v-1.59h.32c.18 0 .32-.14.32-.32v-4.45c-.03-.18-.18-.32-.35-.32zm-2.54-8.9c.35 0 .64.28.64.64s-.28.64-.64.64-.64-.28-.64-.64.28-.64.64-.64zm-13.36 0c.35 0 .64.28.64.64s-.28.64-.64.64-.64-.28-.64-.64.29-.64.64-.64zm-.63 1.91h14.62v4.45h-1.28c.21-.27.32-.61.33-.95v-.64c0-.88-.71-1.59-1.59-1.59h-2.54c-.88 0-1.59.71-1.59 1.59v.64c0 .35.12.68.33.95h-1.92c.21-.27.32-.61.33-.95v-.64c0-.88-.71-1.59-1.59-1.59h-2.54c-.88 0-1.59.71-1.59 1.59v.64c0 .35.12.68.33.95h-1.28v-4.45zm13.03 2.86v.64c0 .53-.43.95-.95.95h-2.54c-.53 0-.95-.43-.95-.95v-.64c0-.53.43-.95.95-.95h2.54c.52 0 .95.42.95.95zm-6.99 0v.64c0 .53-.43.95-.95.95h-2.54c-.53 0-.95-.43-.95-.95v-.64c0-.53.43-.95.95-.95h2.54c.52 0 .95.42.95.95zm-6.99 3.18c0-.53.43-.95.95-.95h14.62c.53 0 .95.43.95.95v.95h-16.53v-.95zm.63 7.31h-.64v-1.27h.64zm15.89 0h-.64v-1.27h.64zm.64-1.91h-17.8v-3.81h17.8z"/><path d="m-290.08 401.8h-1.27c-.18 0-.32.14-.32.32s.14.32.32.32h1.27c.18 0 .32-.14.32-.32s-.14-.32-.32-.32z"/><path d="m-275.45 401.8h-13.35c-.18 0-.32.14-.32.32s.14.32.32.32h13.35c.18 0 .32-.14.32-.32-.01-.18-.15-.32-.32-.32z"/></g></svg>