<svg id="Layer_1" data-name="Layer 1" xmlns="http://www.w3.org/2000/svg" viewBox="0 0 180 180"><title>icon</title><path d="M173.74,32.16a14,14,0,0,1-3.76,5.2q-42.08,42-84.12,84.12c-2.14,2.15-4.58,3.28-7.55,2.26a8.78,8.78,0,0,1-3.19-2.06Q57.36,104,39.71,86.25a21.11,21.11,0,0,1-2.41-3.72V79.6C38.07,77.74,39,76,40.9,75a6.69,6.69,0,0,1,7.38.61A12.9,12.9,0,0,1,49.75,77l29.48,29.48c.34.34.63.74,1.26,1.49a11.64,11.64,0,0,1,1.1-1.59q39.87-39.9,79.76-79.79c2-2,4.24-3.19,7.15-2.49a6.76,6.76,0,0,1,4.91,4.45c.09.23.22.45.34.67Z"/><path d="M162.52,49.12,154.65,57A72.82,72.82,0,1,1,17.19,96.14c-.17-2-.28-4.07-.28-6.14A72.81,72.81,0,0,1,143.58,41l7.53-7.54A83.44,83.44,0,0,0,7.34,76.63C7,79,6.68,81.43,6.51,83.87c-.15,2-.25,4.07-.25,6.13A83.5,83.5,0,1,0,162.52,49.12Z"/></svg>