<?xml version="1.0" encoding="utf-8"?>
<!-- Generator: Adobe Illustrator 21.0.0, SVG Export Plug-In . SVG Version: 6.00 Build 0)  -->
<svg version="1.1" id="Layer_1" xmlns="http://www.w3.org/2000/svg" xmlns:xlink="http://www.w3.org/1999/xlink" x="0px" y="0px"
	 viewBox="-294 386.7 21.2 21.3" style="enable-background:new -294 386.7 21.2 21.3;" xml:space="preserve">
<style type="text/css">
	.st0{fill:none;stroke:#000000;stroke-width:7.2;stroke-miterlimit:10;}
</style>
<circle id="XMLID_372_" class="st0" cx="-273.87" cy="405.86" r="0"/>
<g>
	<g>
		<g>
			<path d="M-274.67,388.29H-288c-0.45,0-0.81,0.36-0.81,0.81v3.67l-0.61-0.91c-0.28-0.42-0.84-0.55-1.27-0.29l-1.25,0.75
				c-0.41,0.24-0.71,0.63-0.84,1.09c-0.46,1.66-0.12,4.53,4.09,8.74c3.35,3.34,5.84,4.25,7.56,4.25c0.4,0,0.8-0.05,1.18-0.15
				c0.46-0.13,0.85-0.43,1.09-0.84l0.75-1.25c0.26-0.43,0.13-0.99-0.29-1.27l-3-2c-0.41-0.27-0.96-0.18-1.27,0.21l-0.87,1.12
				c-0.09,0.12-0.26,0.16-0.39,0.08l-0.17-0.09c-0.55-0.3-1.23-0.67-2.6-2.05c-0.15-0.15-0.28-0.29-0.41-0.42h12.43
				c0.45,0,0.81-0.36,0.81-0.81v-9.83C-273.86,388.65-274.23,388.29-274.67,388.29z M-284.39,402.77l0.16,0.09
				c0.41,0.23,0.92,0.12,1.2-0.25l0.87-1.12c0.1-0.13,0.28-0.16,0.41-0.07l3,2c0.14,0.09,0.18,0.27,0.09,0.41l-0.75,1.25
				c-0.16,0.27-0.41,0.47-0.71,0.55c-1.5,0.41-4.13,0.06-8.13-3.93s-4.34-6.62-3.93-8.12c0.09-0.3,0.28-0.56,0.55-0.71l1.25-0.75
				c0.14-0.08,0.32-0.04,0.41,0.09l2,3c0.09,0.13,0.06,0.31-0.07,0.41l-1.12,0.87c-0.37,0.28-0.47,0.79-0.25,1.2l0.09,0.16
				c0.32,0.58,0.71,1.31,2.15,2.75C-285.7,402.06-284.97,402.45-284.39,402.77z M-274.5,398.94c0,0.1-0.08,0.17-0.17,0.17h-13
				c-0.41-0.47-0.77-0.99-1.06-1.55l-0.09-0.17c-0.07-0.13-0.04-0.3,0.08-0.39l1.12-0.87c0.39-0.3,0.48-0.86,0.21-1.27l-0.76-1.13
				v-4.63c0-0.05,0.02-0.09,0.05-0.12s0.08-0.05,0.12-0.05h13.32c0.05,0,0.09,0.02,0.12,0.05s0.05,0.08,0.05,0.12L-274.5,398.94
				L-274.5,398.94z"/>
			<path d="M-275.77,389.76l-5.31,4.03c-0.15,0.11-0.35,0.11-0.5,0l-5.31-4.03c-0.14-0.11-0.34-0.08-0.45,0.06
				c-0.11,0.14-0.08,0.34,0.06,0.45l5.31,4.03c0.38,0.28,0.89,0.28,1.27,0l5.31-4.03c0.07-0.05,0.11-0.13,0.12-0.21
				c0.01-0.08-0.01-0.17-0.06-0.24C-275.43,389.68-275.63,389.66-275.77,389.76z"/>
			<path d="M-284.05,394.33l-3.26,3.49c-0.12,0.13-0.11,0.33,0.02,0.45c0.13,0.12,0.33,0.11,0.45-0.02l3.26-3.49
				c0.11-0.13,0.1-0.32-0.03-0.44S-283.93,394.21-284.05,394.33z"/>
			<path d="M-278.6,394.33c-0.12-0.13-0.32-0.14-0.45-0.02c-0.13,0.12-0.14,0.32-0.02,0.45l3.26,3.49c0.12,0.13,0.32,0.14,0.45,0.02
				c0.13-0.12,0.14-0.32,0.02-0.45L-278.6,394.33z"/>
		</g>
	</g>
</g>
</svg>
