<?xml version="1.0" encoding="utf-8"?>
<!-- Generator: Adobe Illustrator 21.0.0, SVG Export Plug-In . SVG Version: 6.00 Build 0)  -->
<svg version="1.1" id="Layer_1" xmlns="http://www.w3.org/2000/svg" xmlns:xlink="http://www.w3.org/1999/xlink" x="0px" y="0px"
	 viewBox="-294 386.7 21.2 21.3" style="enable-background:new -294 386.7 21.2 21.3;" xml:space="preserve">
<style type="text/css">
	.st0{fill:#28336D;}
</style>
<g id="XMLID_217_">
	<g id="XMLID_11_">
		<path id="XMLID_71_" class="st0" d="M-277.51,405.49h-4.7v-4.42h-2.39v4.42h-4.7c-0.27,0-0.52-0.1-0.72-0.3
			c-0.2-0.2-0.3-0.44-0.3-0.72v-5.52c0-0.04,0.01-0.07,0.01-0.09v-0.11l6.9-5.69l6.84,5.64l0.03,0.05c0.03,0.06,0.04,0.12,0.04,0.19
			v5.52c0,0.28-0.1,0.52-0.3,0.72C-276.99,405.39-277.23,405.49-277.51,405.49z M-281.65,404.93h4.14c0.13,0,0.23-0.04,0.32-0.14
			c0.09-0.09,0.14-0.2,0.14-0.32v-5.45l-6.35-5.24l-6.35,5.24v5.45c0,0.13,0.04,0.23,0.14,0.32c0.09,0.09,0.2,0.14,0.32,0.14h4.14
			v-4.42h3.51V404.93z"/>
	</g>
	<path id="XMLID_13_" class="st0" d="M-273.84,396.91c-0.01-0.18-0.09-0.33-0.23-0.44l-2.42-2.01v-4.57c0-0.18-0.06-0.34-0.18-0.46
		c-0.12-0.12-0.28-0.19-0.46-0.19h-2.21c-0.18,0-0.34,0.06-0.46,0.19c-0.12,0.12-0.19,0.28-0.19,0.46v1.65l-2.35-1.97
		c-0.3-0.24-0.65-0.36-1.05-0.36c-0.4,0-0.76,0.12-1.05,0.36l-8.27,6.89c-0.14,0.11-0.22,0.26-0.23,0.44
		c-0.01,0.17,0.04,0.33,0.14,0.47l0.71,0.85l0.01,0.01c0.11,0.12,0.24,0.19,0.41,0.22l0.02,0c0.02,0,0.04,0,0.06,0
		c0.14,0,0.27-0.04,0.4-0.13l0.01-0.01l7.8-6.5l7.78,6.49c0.11,0.1,0.26,0.15,0.42,0.15h0.03l0.04,0c0.16-0.02,0.3-0.1,0.41-0.22
		l0.72-0.86C-273.88,397.24-273.83,397.08-273.84,396.91z M-274.42,397.02l-0.71,0.85c-0.01,0.01-0.03,0.02-0.06,0.03h-0.01
		c-0.03,0-0.05,0-0.06-0.02l-8.14-6.79l-8.13,6.78c-0.04,0.02-0.07,0.03-0.08,0.03c-0.03-0.01-0.05-0.02-0.06-0.03l-0.71-0.84
		c-0.01-0.02-0.02-0.04-0.02-0.08c0-0.03,0.01-0.04,0.03-0.05l8.27-6.89c0.2-0.16,0.42-0.24,0.7-0.24c0.27,0,0.5,0.08,0.7,0.23
		l3.27,2.73v-2.84c0-0.05,0.01-0.06,0.02-0.07c0.01-0.01,0.02-0.02,0.07-0.02h2.21c0.05,0,0.06,0.01,0.07,0.02
		c0.01,0.01,0.02,0.02,0.02,0.07v4.83l2.62,2.18l0,0c0.01,0.01,0.02,0.02,0.02,0.05C-274.4,396.99-274.41,397.01-274.42,397.02z"/>
</g>
</svg>
