<?xml version="1.0" encoding="utf-8"?>
<!-- Generator: Adobe Illustrator 21.0.0, SVG Export Plug-In . SVG Version: 6.00 Build 0)  -->
<svg version="1.1" id="Layer_1" xmlns="http://www.w3.org/2000/svg" xmlns:xlink="http://www.w3.org/1999/xlink" x="0px" y="0px"
	 viewBox="-294 386.7 21.2 21.3" style="enable-background:new -294 386.7 21.2 21.3;" xml:space="preserve">
<style type="text/css">
	.st0{fill:none;stroke:#000000;stroke-width:7.2;stroke-miterlimit:10;}
</style>
<circle id="XMLID_372_" class="st0" cx="-273.87" cy="405.86" r="0"/>
<g>
	<path d="M-274.25,395.75h-7.72c-0.21,0-0.38,0.17-0.38,0.38c0,0.21,0.17,0.38,0.38,0.38h7.72c0.21,0,0.38-0.17,0.38-0.38
		C-273.87,395.92-274.04,395.75-274.25,395.75z"/>
	<path d="M-277.04,399.45l3.05-3.05c0.15-0.15,0.15-0.39,0-0.54l-3.05-3.05c-0.07-0.07-0.17-0.11-0.27-0.11s-0.19,0.04-0.27,0.11
		c-0.07,0.07-0.11,0.17-0.11,0.27c0,0.1,0.04,0.2,0.11,0.27l2.78,2.78l-2.78,2.78c-0.07,0.07-0.11,0.17-0.11,0.27
		s0.04,0.2,0.11,0.27C-277.43,399.59-277.18,399.59-277.04,399.45z"/>
	<path d="M-286.21,389.52l-4.89-1.63c-0.14-0.04-0.28-0.06-0.43-0.06c-0.77,0-1.4,0.63-1.4,1.4v14.63c0,0.6,0.38,1.13,0.95,1.33
		l4.89,1.63c0.14,0.04,0.28,0.06,0.43,0.06c0.77,0,1.4-0.63,1.4-1.4v-14.63C-285.26,390.25-285.64,389.72-286.21,389.52z
		 M-286.02,405.48c0,0.35-0.29,0.64-0.64,0.64c-0.07,0-0.14-0.01-0.2-0.03l-4.87-1.62c-0.26-0.09-0.44-0.34-0.44-0.61v-14.63
		c0-0.35,0.29-0.64,0.64-0.64c0.07,0,0.14,0.01,0.2,0.03l4.87,1.62c0.26,0.09,0.44,0.34,0.44,0.61V405.48z"/>
	<path d="M-280.38,393.49v-3.66c0-1.11-0.9-2.01-2.01-2.01h-9.15c-0.21,0-0.38,0.17-0.38,0.38c0,0.21,0.17,0.38,0.38,0.38h9.15
		c0.69,0,1.25,0.56,1.25,1.25v3.66c0,0.21,0.17,0.38,0.38,0.38C-280.55,393.87-280.38,393.7-280.38,393.49z"/>
	<path d="M-282.38,403.68h-3.25c-0.21,0-0.38,0.17-0.38,0.38c0,0.21,0.17,0.38,0.38,0.38h3.25c1.11,0,2.01-0.9,2.01-2.01v-3.66
		c0-0.21-0.17-0.38-0.38-0.38c-0.21,0-0.38,0.17-0.38,0.38v3.66C-281.14,403.12-281.7,403.68-282.38,403.68z"/>
</g>
</svg>
