<?xml version="1.0" encoding="utf-8"?>
<!-- Generator: Adobe Illustrator 21.0.0, SVG Export Plug-In . SVG Version: 6.00 Build 0)  -->
<svg version="1.1" id="Layer_1" xmlns="http://www.w3.org/2000/svg" xmlns:xlink="http://www.w3.org/1999/xlink" x="0px" y="0px"
	 viewBox="-294 386.7 21.2 21.3" style="enable-background:new -294 386.7 21.2 21.3;" xml:space="preserve">
<style type="text/css">
	.st0{fill:#28336D;}
</style>
<g id="XMLID_14_">
	<g id="XMLID_526_">
		<path id="XMLID_565_" class="st0" d="M-274.14,404.7h-1.6v-14.06c0.53,0,0.96-0.43,0.96-0.96v-1.6c0-0.18-0.14-0.32-0.32-0.32
			h-16.61c-0.18,0-0.32,0.14-0.32,0.32v1.6c0,0.53,0.43,0.96,0.96,0.96v14.06h-1.6c-0.18,0-0.32,0.14-0.32,0.32v1.6
			c0,0.18,0.14,0.32,0.32,0.32h18.53c0.18,0,0.32-0.14,0.32-0.32v-1.6C-273.82,404.84-273.96,404.7-274.14,404.7z M-291.39,389.68
			v-1.28h15.97v1.28c0,0.18-0.14,0.32-0.32,0.32h-15.33C-291.24,390-291.39,389.86-291.39,389.68z M-276.37,390.64v14.06h-14.06
			v-14.06H-276.37z M-274.46,406.29h-17.89v-0.96h17.89V406.29z"/>
		<path id="XMLID_529_" class="st0" d="M-277.01,390.96h-12.78c-0.18,0-0.32,0.14-0.32,0.32v12.78c0,0.18,0.14,0.32,0.32,0.32h12.78
			c0.18,0,0.32-0.14,0.32-0.32v-12.78C-276.69,391.1-276.83,390.96-277.01,390.96z M-283.72,403.74h-5.75v-6.07h5.75V403.74z
			 M-283.72,397.03h-5.75v-5.43h5.75V397.03z M-277.33,403.74h-5.75v-6.07h5.75V403.74z M-277.33,397.03h-5.75v-5.43h5.75V397.03z"
			/>
		<path id="XMLID_528_" class="st0" d="M-288.74,393.61l1.28-1.28l0.45,0.45l-1.28,1.28L-288.74,393.61z"/>
		<path id="XMLID_527_" class="st0" d="M-288.74,395.21l2.87-2.87l0.45,0.45l-2.87,2.87L-288.74,395.21z"/>
	</g>
	<rect id="XMLID_525_" x="-283.08" y="397.67" class="st0" width="5.75" height="6.07"/>
	<rect id="XMLID_571_" x="-289.47" y="397.67" class="st0" width="5.75" height="6.07"/>
</g>
</svg>
