<?xml version="1.0" encoding="utf-8"?>
<!-- Generator: Adobe Illustrator 21.0.0, SVG Export Plug-In . SVG Version: 6.00 Build 0)  -->
<svg version="1.1" id="Layer_1" xmlns="http://www.w3.org/2000/svg" xmlns:xlink="http://www.w3.org/1999/xlink" x="0px" y="0px"
	 viewBox="-294 386.7 21.2 21.3" style="enable-background:new -294 386.7 21.2 21.3;" xml:space="preserve">
<g id="Project">
	<path d="M-286.79,401.67h4.94c0.17,0,0.31-0.14,0.31-0.31v-4.01c0-0.1-0.05-0.19-0.12-0.25l-2.47-1.85c-0.11-0.08-0.26-0.08-0.37,0
		l-2.47,1.85c-0.08,0.06-0.12,0.15-0.12,0.25v4.01C-287.1,401.53-286.97,401.67-286.79,401.67L-286.79,401.67z M-284.94,401.05
		v-1.85h1.23v1.85H-284.94z M-286.49,397.5l2.16-1.62l2.16,1.62v3.55h-0.93v-2.16c0-0.17-0.14-0.31-0.31-0.31h-1.85
		c-0.17,0-0.31,0.14-0.31,0.31v2.16h-0.93V397.5z"/>
	<path d="M-279.08,392.72h-10.49c-0.17,0-0.31,0.14-0.31,0.31v10.49c0,0.17,0.14,0.31,0.31,0.31h10.49c0.17,0,0.31-0.14,0.31-0.31
		v-10.49C-278.77,392.86-278.91,392.72-279.08,392.72z M-279.39,403.21h-9.88v-9.88h9.88V403.21z"/>
	<path d="M-273.86,387.97c-0.03-0.08-0.09-0.14-0.17-0.17c-0.04-0.02-0.08-0.02-0.12-0.02h-18.52c-0.17,0-0.31,0.14-0.31,0.31v3.09
		c0,0.17,0.14,0.31,0.31,0.31h15.12v15.12c0,0.17,0.14,0.31,0.31,0.31h3.09c0.17,0,0.31-0.14,0.31-0.31v-18.52
		C-273.83,388.05-273.84,388.01-273.86,387.97z M-276.92,406.3v-0.93h1.23c0.17,0,0.31-0.14,0.31-0.31s-0.14-0.31-0.31-0.31h-1.23
		v-0.93h0.62c0.17,0,0.31-0.14,0.31-0.31s-0.14-0.31-0.31-0.31h-0.62v-0.93h1.23c0.17,0,0.31-0.14,0.31-0.31s-0.14-0.31-0.31-0.31
		h-1.23v-0.93h0.62c0.17,0,0.31-0.14,0.31-0.31s-0.14-0.31-0.31-0.31h-0.62v-0.93h1.23c0.17,0,0.31-0.14,0.31-0.31
		c0-0.17-0.14-0.31-0.31-0.31h-1.23v-0.93h0.62c0.17,0,0.31-0.14,0.31-0.31s-0.14-0.31-0.31-0.31h-0.62v-0.93h1.23
		c0.17,0,0.31-0.14,0.31-0.31s-0.14-0.31-0.31-0.31h-1.23v-0.93h0.62c0.17,0,0.31-0.14,0.31-0.31c0-0.17-0.14-0.31-0.31-0.31h-0.62
		v-0.93h1.23c0.17,0,0.31-0.14,0.31-0.31s-0.14-0.31-0.31-0.31h-1.23v-1.11l0.84-0.84c0.12-0.12,0.12-0.32-0.01-0.44
		c-0.12-0.12-0.31-0.12-0.43,0l-0.84,0.84h-1.11v-1.23c0-0.17-0.14-0.31-0.31-0.31s-0.31,0.14-0.31,0.31v1.23h-0.93v-0.62
		c0-0.17-0.14-0.31-0.31-0.31c-0.17,0-0.31,0.14-0.31,0.31v0.62h-0.93v-1.23c0-0.17-0.14-0.31-0.31-0.31s-0.31,0.14-0.31,0.31v1.23
		h-0.93v-0.62c0-0.17-0.14-0.31-0.31-0.31s-0.31,0.14-0.31,0.31v0.62h-0.93v-1.23c0-0.17-0.14-0.31-0.31-0.31
		c-0.17,0-0.31,0.14-0.31,0.31v1.23h-0.93v-0.62c0-0.17-0.14-0.31-0.31-0.31s-0.31,0.14-0.31,0.31v0.62h-0.93v-1.23
		c0-0.17-0.14-0.31-0.31-0.31s-0.31,0.14-0.31,0.31v1.23h-0.93v-0.62c0-0.17-0.14-0.31-0.31-0.31s-0.31,0.14-0.31,0.31v0.62h-0.93
		v-1.23c0-0.17-0.14-0.31-0.31-0.31s-0.31,0.14-0.31,0.31v1.23h-0.93v-2.47h17.46l-0.71,0.71c-0.12,0.12-0.13,0.31-0.01,0.44
		c0.12,0.12,0.31,0.13,0.44,0.01c0,0,0.01-0.01,0.01-0.01l0.71-0.71v17.46H-276.92z"/>
	<path d="M-275.07,393.96h-0.31c-0.17,0-0.31,0.14-0.31,0.31c0,0.17,0.14,0.31,0.31,0.31h0.31c0.17,0,0.31-0.14,0.31-0.31
		C-274.76,394.09-274.9,393.96-275.07,393.96z"/>
</g>
</svg>
