<?xml version="1.0" encoding="utf-8"?>
<!-- Generator: Adobe Illustrator 21.0.0, SVG Export Plug-In . SVG Version: 6.00 Build 0)  -->
<svg version="1.1" id="Layer_1" xmlns="http://www.w3.org/2000/svg" xmlns:xlink="http://www.w3.org/1999/xlink" x="0px" y="0px"
	 viewBox="-294 386.7 21.2 21.3" style="enable-background:new -294 386.7 21.2 21.3;" xml:space="preserve">
<style type="text/css">
	.st0{fill:none;stroke:#000000;stroke-width:7.2;stroke-miterlimit:10;}
</style>
<circle id="XMLID_372_" class="st0" cx="-273.87" cy="405.86" r="0"/>
<path d="M-275.39,387.87h-16.03c-0.81,0-1.46,0.66-1.46,1.46v2.67v13.36c0,0.81,0.66,1.46,1.46,1.46h16.03
	c0.81,0,1.46-0.66,1.46-1.46v-13.36v-2.67C-273.92,388.53-274.58,387.87-275.39,387.87z M-292.15,392.37h17.5v12.99
	c0,0.41-0.33,0.74-0.74,0.74h-16.03c-0.41,0-0.74-0.33-0.74-0.74V392.37z M-274.65,391.64h-17.5v-2.31c0-0.41,0.33-0.74,0.74-0.74
	h16.03c0.41,0,0.74,0.33,0.74,0.74V391.64z"/>
<path d="M-291.26,399.91h6.91c0.2,0,0.36-0.16,0.36-0.36v-6.29c0-0.2-0.16-0.36-0.36-0.36h-6.91c-0.2,0-0.36,0.16-0.36,0.36v6.29
	C-291.62,399.75-291.46,399.91-291.26,399.91z M-284.71,398.04l-1.58-1.58c-0.07-0.07-0.17-0.12-0.27-0.11
	c-0.1,0-0.19,0.04-0.26,0.12l-1.7,1.85l-0.92-0.92c-0.14-0.14-0.37-0.14-0.51,0l-0.95,0.95v-4.73h6.19V398.04z M-289.69,398.18
	l1.01,1.01h-2.02L-289.69,398.18z M-287.99,398.84l1.46-1.59l1.83,1.82v0.11h-2.94L-287.99,398.84z"/>
<path d="M-289.06,396.77c0.72,0,1.31-0.59,1.31-1.31s-0.59-1.31-1.31-1.31c-0.72,0-1.31,0.59-1.31,1.31
	S-289.78,396.77-289.06,396.77z M-289.64,395.46c0-0.32,0.26-0.58,0.58-0.58s0.58,0.26,0.58,0.58s-0.26,0.58-0.58,0.58
	S-289.64,395.78-289.64,395.46z"/>
<path d="M-282.82,404.9v0.31c0,0.2,0.16,0.36,0.36,0.36h6.91c0.2,0,0.36-0.16,0.36-0.36v-6.29c0-0.2-0.16-0.36-0.36-0.36h-6.91
	c-0.2,0-0.36,0.16-0.36,0.36V404.9C-282.82,404.89-282.82,404.89-282.82,404.9C-282.82,404.89-282.82,404.9-282.82,404.9z
	 M-275.91,399.29v4.42l-1.58-1.58c-0.07-0.07-0.16-0.11-0.25-0.11c0,0-0.01,0-0.01,0c-0.1,0-0.19,0.05-0.26,0.12l-1.7,1.85
	l-0.92-0.92c-0.14-0.14-0.37-0.14-0.51,0l-0.95,0.95v-4.73H-275.91z M-280.89,403.84l1.01,1.01h-2.02L-280.89,403.84z
	 M-279.19,404.5l1.46-1.59l1.82,1.82v0.11h-2.94L-279.19,404.5z"/>
<path d="M-280.26,402.43c0.72,0,1.31-0.59,1.31-1.31c0-0.72-0.59-1.31-1.31-1.31s-1.31,0.59-1.31,1.31
	C-281.56,401.84-280.98,402.43-280.26,402.43z M-280.84,401.12c0-0.32,0.26-0.58,0.58-0.58s0.58,0.26,0.58,0.58
	c0,0.32-0.26,0.58-0.58,0.58S-280.84,401.44-280.84,401.12z"/>
<path d="M-282.46,394.88h5.03c0.2,0,0.36-0.16,0.36-0.36c0-0.2-0.16-0.36-0.36-0.36h-5.03c-0.2,0-0.36,0.16-0.36,0.36
	C-282.82,394.72-282.66,394.88-282.46,394.88z"/>
<path d="M-276.17,394.88h0.63c0.2,0,0.36-0.16,0.36-0.36c0-0.2-0.16-0.36-0.36-0.36h-0.63c-0.2,0-0.36,0.16-0.36,0.36
	C-276.54,394.72-276.37,394.88-276.17,394.88z"/>
<path d="M-282.46,397.4h5.03c0.2,0,0.36-0.16,0.36-0.36c0-0.2-0.16-0.36-0.36-0.36h-5.03c-0.2,0-0.36,0.16-0.36,0.36
	C-282.82,397.24-282.66,397.4-282.46,397.4z"/>
<path d="M-275.54,396.67h-0.63c-0.2,0-0.36,0.16-0.36,0.36c0,0.2,0.16,0.36,0.36,0.36h0.63c0.2,0,0.36-0.16,0.36-0.36
	C-275.18,396.84-275.34,396.67-275.54,396.67z"/>
<path d="M-275.54,395.41h-5.03c-0.2,0-0.36,0.16-0.36,0.36c0,0.2,0.16,0.36,0.36,0.36h5.03c0.2,0,0.36-0.16,0.36-0.36
	C-275.18,395.58-275.34,395.41-275.54,395.41z"/>
<path d="M-282.46,396.14h0.63c0.2,0,0.36-0.16,0.36-0.36c0-0.2-0.16-0.36-0.36-0.36h-0.63c-0.2,0-0.36,0.16-0.36,0.36
	C-282.82,395.98-282.66,396.14-282.46,396.14z"/>
<path d="M-291.26,401.8h5.03c0.2,0,0.36-0.16,0.36-0.36c0-0.2-0.16-0.36-0.36-0.36h-5.03c-0.2,0-0.36,0.16-0.36,0.36
	C-291.62,401.64-291.46,401.8-291.26,401.8z"/>
<path d="M-284.34,401.07h-0.63c-0.2,0-0.36,0.16-0.36,0.36c0,0.2,0.16,0.36,0.36,0.36h0.63c0.2,0,0.36-0.16,0.36-0.36
	C-283.98,401.24-284.14,401.07-284.34,401.07z"/>
<path d="M-291.26,404.31h5.03c0.2,0,0.36-0.16,0.36-0.36c0-0.2-0.16-0.36-0.36-0.36h-5.03c-0.2,0-0.36,0.16-0.36,0.36
	C-291.62,404.15-291.46,404.31-291.26,404.31z"/>
<path d="M-284.34,403.59h-0.63c-0.2,0-0.36,0.16-0.36,0.36c0,0.2,0.16,0.36,0.36,0.36h0.63c0.2,0,0.36-0.16,0.36-0.36
	C-283.98,403.75-284.14,403.59-284.34,403.59z"/>
<path d="M-284.34,402.33h-5.03c-0.2,0-0.36,0.16-0.36,0.36c0,0.2,0.16,0.36,0.36,0.36h5.03c0.2,0,0.36-0.16,0.36-0.36
	C-283.98,402.49-284.14,402.33-284.34,402.33z"/>
<path d="M-291.26,403.06h0.63c0.2,0,0.36-0.16,0.36-0.36c0-0.2-0.16-0.36-0.36-0.36h-0.63c-0.2,0-0.36,0.16-0.36,0.36
	C-291.62,402.89-291.46,403.06-291.26,403.06z"/>
<path d="M-290,389.13h-1.26c-0.2,0-0.36,0.16-0.36,0.36v1.26c0,0.2,0.16,0.36,0.36,0.36h1.26c0.2,0,0.36-0.16,0.36-0.36v-1.26
	C-289.64,389.29-289.8,389.13-290,389.13z M-290.25,390.48h-0.76v-0.72h0.76V390.48z"/>
<path d="M-287.49,389.13h-1.26c-0.2,0-0.36,0.16-0.36,0.36v1.26c0,0.2,0.16,0.36,0.36,0.36h1.26c0.2,0,0.36-0.16,0.36-0.36v-1.26
	C-287.12,389.29-287.29,389.13-287.49,389.13z M-287.73,390.48h-0.76v-0.72h0.76V390.48z"/>
<path d="M-284.97,389.13h-1.26c-0.2,0-0.36,0.16-0.36,0.36v1.26c0,0.2,0.16,0.36,0.36,0.36h1.26c0.2,0,0.36-0.16,0.36-0.36v-1.26
	C-284.61,389.29-284.77,389.13-284.97,389.13z M-285.22,390.48h-0.76v-0.72h0.76V390.48z"/>
</svg>
