<?xml version="1.0" encoding="utf-8"?>
<!-- Generator: Adobe Illustrator 21.0.0, SVG Export Plug-In . SVG Version: 6.00 Build 0)  -->
<svg version="1.1" id="Layer_1" xmlns="http://www.w3.org/2000/svg" xmlns:xlink="http://www.w3.org/1999/xlink" x="0px" y="0px"
	 viewBox="-294 386.7 21.2 21.3" style="enable-background:new -294 386.7 21.2 21.3;" xml:space="preserve">
<style type="text/css">
	.st0{fill:#28336D;}
</style>
<g id="XMLID_60_">
	<path id="XMLID_332_" class="st0" d="M-279.53,390.54L-279.53,390.54c0,0.19-0.16,0.35-0.35,0.35h-4.91
		c-0.19,0-0.35-0.16-0.35-0.35l0,0c0-0.19,0.16-0.35,0.35-0.35h4.91C-279.69,390.19-279.53,390.35-279.53,390.54z"/>
	<path id="XMLID_331_" class="st0" d="M-285.48,390.54L-285.48,390.54c0,0.19-0.16,0.35-0.35,0.35h-1.09
		c-0.19,0-0.35-0.16-0.35-0.35l0,0c0-0.19,0.16-0.35,0.35-0.35h1.09C-285.64,390.19-285.48,390.35-285.48,390.54z"/>
	<path id="XMLID_61_" class="st0" d="M-276.73,387.73h-13.34c-0.19,0-0.35,0.16-0.35,0.35v4.9v0.22v2.8v0.95v9.67
		c0,0.12,0.06,0.23,0.17,0.3c0.1,0.06,0.23,0.07,0.34,0.01l6.51-3.39l6.51,3.39c0.05,0.03,0.11,0.04,0.16,0.04
		c0.06,0,0.13-0.02,0.18-0.05c0.1-0.06,0.17-0.18,0.17-0.3v-4.52v-0.36v-2.62v-0.99v-10.05
		C-276.38,387.89-276.54,387.73-276.73,387.73z M-277.08,398.13v0.99v2.62v0.36v3.95l-6.16-3.21c-0.1-0.05-0.22-0.05-0.32,0
		l-6.16,3.21v-9.1V396v-2.8v-0.22v-4.55h12.65V398.13z"/>
</g>
</svg>
