<?xml version="1.0" encoding="utf-8"?>
<!-- Generator: Adobe Illustrator 21.0.0, SVG Export Plug-In . SVG Version: 6.00 Build 0)  -->
<svg version="1.1" id="Layer_1" xmlns="http://www.w3.org/2000/svg" xmlns:xlink="http://www.w3.org/1999/xlink" x="0px" y="0px"
	 viewBox="-294 386.7 21.2 21.3" style="enable-background:new -294 386.7 21.2 21.3;" xml:space="preserve">
<g>
	<path d="M-285.98,402.21v3.69c0,0.26,0.17,0.49,0.41,0.57c0.06,0.02,0.12,0.03,0.19,0.03c0.19,0,0.37-0.09,0.48-0.24l2.16-2.93
		L-285.98,402.21z"/>
	<path d="M-274.11,388.32c-0.18-0.13-0.42-0.15-0.62-0.04l-17.88,9.34c-0.21,0.11-0.34,0.34-0.32,0.57c0.02,0.24,0.18,0.44,0.4,0.52
		l4.97,1.7l10.59-9.05l-8.19,9.87l8.33,2.85c0.06,0.02,0.13,0.03,0.19,0.03c0.11,0,0.22-0.03,0.31-0.09
		c0.15-0.09,0.25-0.25,0.28-0.42l2.19-14.7C-273.84,388.67-273.93,388.45-274.11,388.32z"/>
</g>
</svg>
