<?xml version="1.0" encoding="utf-8"?>
<!-- Generator: Adobe Illustrator 21.0.0, SVG Export Plug-In . SVG Version: 6.00 Build 0)  -->
<svg version="1.1" id="Layer_1" xmlns="http://www.w3.org/2000/svg" xmlns:xlink="http://www.w3.org/1999/xlink" x="0px" y="0px"
	 viewBox="-294 386.7 21.2 21.3" style="enable-background:new -294 386.7 21.2 21.3;" xml:space="preserve">
<g>
	<g>
		<g>
			<path d="M-275.1,395.27h-1.55c-0.13-0.43-0.3-0.84-0.51-1.23l1.1-1.1c0.23-0.23,0.36-0.55,0.36-0.88c0-0.33-0.13-0.65-0.36-0.88
				l-1.17-1.17c-0.47-0.47-1.29-0.47-1.76,0l-1.1,1.1c-0.39-0.21-0.8-0.38-1.23-0.51v-1.55c0-0.69-0.56-1.25-1.25-1.25h-1.66
				c-0.69,0-1.25,0.56-1.25,1.25v1.55c-0.43,0.13-0.84,0.3-1.23,0.51l-1.1-1.1c-0.49-0.49-1.28-0.49-1.76,0l-1.18,1.17
				c-0.49,0.49-0.49,1.28,0,1.76l1.1,1.1c-0.21,0.39-0.38,0.8-0.51,1.23h-1.55c-0.69,0-1.25,0.56-1.25,1.25v1.66
				c0,0.69,0.56,1.24,1.25,1.24h1.55c0.13,0.43,0.3,0.84,0.51,1.23l-1.1,1.1c-0.49,0.49-0.49,1.28,0,1.76l1.17,1.18
				c0.49,0.49,1.28,0.49,1.76,0l1.1-1.1c0.39,0.21,0.8,0.38,1.23,0.51v1.55c0,0.69,0.56,1.25,1.25,1.25h1.66
				c0.69,0,1.25-0.56,1.25-1.25v-1.55c0.43-0.13,0.84-0.3,1.23-0.51l1.1,1.1c0.47,0.47,1.29,0.47,1.76,0l1.17-1.17
				c0.23-0.23,0.36-0.55,0.36-0.88c0-0.33-0.13-0.65-0.36-0.88l-1.1-1.1c0.21-0.39,0.38-0.8,0.51-1.23h1.55
				c0.69,0,1.25-0.56,1.25-1.25v-1.66C-273.85,395.83-274.41,395.27-275.1,395.27z M-274.68,398.18c0,0.23-0.19,0.42-0.42,0.42
				h-1.87c-0.19,0-0.35,0.13-0.4,0.31c-0.15,0.57-0.37,1.11-0.67,1.61c-0.1,0.16-0.07,0.37,0.06,0.5l1.32,1.32
				c0.08,0.08,0.12,0.18,0.12,0.29c0,0.11-0.04,0.22-0.12,0.29l-1.17,1.17c-0.16,0.16-0.43,0.16-0.59,0l-1.32-1.32
				c-0.13-0.13-0.34-0.16-0.5-0.06c-0.5,0.29-1.04,0.52-1.61,0.67c-0.18,0.05-0.31,0.21-0.31,0.4v1.87c0,0.23-0.19,0.42-0.42,0.42
				h-1.66c-0.23,0-0.42-0.19-0.42-0.42v-1.87c0-0.19-0.13-0.35-0.31-0.4c-0.57-0.15-1.11-0.37-1.61-0.67
				c-0.07-0.04-0.14-0.06-0.21-0.06c-0.11,0-0.21,0.04-0.29,0.12l-1.32,1.32c-0.16,0.16-0.43,0.16-0.59,0l-1.17-1.17
				c-0.16-0.16-0.16-0.43,0-0.59l1.32-1.32c0.13-0.13,0.16-0.34,0.06-0.5c-0.29-0.5-0.52-1.04-0.67-1.61
				c-0.05-0.18-0.21-0.31-0.4-0.31h-1.87c-0.23,0-0.42-0.19-0.42-0.42v-1.66c0-0.23,0.19-0.42,0.42-0.42h1.87
				c0.19,0,0.35-0.13,0.4-0.31c0.15-0.57,0.37-1.11,0.67-1.61c0.1-0.16,0.07-0.37-0.06-0.5l-1.32-1.32c-0.16-0.16-0.16-0.43,0-0.59
				l1.17-1.17c0.16-0.16,0.43-0.16,0.59,0l1.32,1.32c0.13,0.13,0.34,0.16,0.5,0.06c0.5-0.29,1.04-0.52,1.61-0.67
				c0.18-0.05,0.31-0.21,0.31-0.4v-1.87c0-0.23,0.19-0.42,0.42-0.42h1.66c0.23,0,0.42,0.19,0.42,0.42v1.87
				c0,0.19,0.13,0.35,0.31,0.4c0.57,0.15,1.11,0.37,1.61,0.67c0.16,0.1,0.37,0.07,0.5-0.06l1.32-1.32c0.16-0.16,0.43-0.16,0.59,0
				l1.17,1.17c0.08,0.08,0.12,0.18,0.12,0.29s-0.04,0.22-0.12,0.29l-1.32,1.32c-0.13,0.13-0.16,0.34-0.06,0.5
				c0.3,0.5,0.52,1.04,0.67,1.61c0.05,0.18,0.21,0.31,0.4,0.31h1.87c0.23,0,0.42,0.19,0.42,0.42V398.18z"/>
		</g>
	</g>
	<g>
		<g>
			<path d="M-283.4,393.61c-2.06,0-3.74,1.68-3.74,3.74c0,2.06,1.68,3.74,3.74,3.74c2.06,0,3.74-1.68,3.74-3.74
				C-279.66,395.29-281.34,393.61-283.4,393.61z M-283.4,400.26c-1.6,0-2.91-1.3-2.91-2.91c0-1.6,1.3-2.91,2.91-2.91
				c1.6,0,2.91,1.3,2.91,2.91C-280.49,398.95-281.8,400.26-283.4,400.26z"/>
		</g>
	</g>
</g>
</svg>
