<svg id="Layer_1" data-name="Layer 1" xmlns="http://www.w3.org/2000/svg" viewBox="0 0 180 180"><defs><style>.cls-1{fill:#606161;}</style></defs><title>smile</title><path class="cls-1" d="M29,49.33A20.33,20.33,0,1,0,8.67,29,20.36,20.36,0,0,0,29,49.33Z"/><path class="cls-1" d="M151,8.67A20.33,20.33,0,1,0,171.33,29,20.36,20.36,0,0,0,151,8.67Z"/><path class="cls-1" d="M167.84,118.18a6.77,6.77,0,0,0-9.37,2,81.2,81.2,0,0,1-136.94,0,6.78,6.78,0,1,0-11.41,7.32,94.76,94.76,0,0,0,159.76,0A6.79,6.79,0,0,0,167.84,118.18Z"/></svg>