<svg enable-background="new -294 386.7 21.2 21.3" viewBox="-294 386.7 21.2 21.3" xmlns="http://www.w3.org/2000/svg"><g fill="#28336d"><path d="m-289.79 403.35c0 .09.01.18.07.26s.14.12.24.13h.05 2.51 2.49 2.49 7.67.13c.15-.01.26-.11.29-.26 0-.01.01-.02.01-.03v-15.37c-.01-.01-.01-.02-.01-.04-.02-.15-.17-.26-.3-.26h-.05c-5.07 0-10.15 0-15.22 0-.1 0-.18.02-.24.07-.08.06-.13.15-.13.28v.04 7.55 1.19 1.19 3.93c-.01.43 0 .88 0 1.32zm.71-.85v-.03l.24-.04c.41-.06.82-.18 1.2-.37.35-.17.67-.38.95-.64.67-.6 1.11-1.35 1.3-2.22.07-.31.1-.62.09-.93 0-.18-.12-.31-.3-.32-.04 0-.07 0-.11 0-1.09 0-2.17 0-3.25 0h-.15v-1.84h1.44 3.84c.06 0 .13 0 .19-.02.14-.03.23-.14.25-.29 0-.03 0-.06 0-.1v-2.14h.07.08.08c.06 0 .11 0 .17-.01.14-.03.23-.15.24-.3.01-.13-.03-.22-.11-.3-.06-.06-.14-.09-.24-.09-.38 0-.83 0-1.26 0-.19 0-.32.1-.35.27-.02.12 0 .23.07.31.06.08.15.12.26.12h.16.11l.01.03c.02.09.02 1.69.01 1.76l-.01.04h-4.98l-.01-.03c-.02-.05-.02-6.77 0-6.84l.01-.04h4.99v1.84h-.12c-.06 0-.12 0-.17 0h-.01c-.1 0-.18.04-.24.11-.1.11-.11.25-.05.39.05.13.15.19.3.19h1.32c.18 0 .32-.14.33-.32 0-.12-.03-.21-.1-.28-.06-.06-.13-.09-.22-.09-.06 0-.12 0-.17 0h-.12l-.01-.03c-.03-.08-.02-1.68-.01-1.76l.01-.03.03-.01c.07-.02 2.6-.02 2.71 0l.04.01v3.39.07c.01.21.15.34.35.34h.78.46v.1.12.02c0 .05 0 .1.02.15.03.14.16.24.3.24.07 0 .12-.01.16-.02.14-.04.22-.17.22-.34 0-.42 0-.84 0-1.26 0-.03-.01-.06-.01-.08-.03-.16-.16-.26-.32-.27-.01 0-.02 0-.02 0-.16 0-.28.08-.33.22-.02.05-.02.1-.02.15v.15.09l-.03.01c-.08.02-.68.02-.79.01h-.02l-.01-.01c-.01-.01-.02-.02-.02-.03 0-.02-.01-.02-.01-.03 0-.97 0-1.95 0-2.92 0-.01 0-.02 0-.03v-.05l.03-.01c.09-.02 5.22-.01 5.25 0l.04.01v3.06l-.03.01c-.07.02-1.04.02-1.12 0l-.04-.01v-.07c0-.02 0-.05 0-.07v-.06c0-.04 0-.08-.01-.13-.02-.14-.1-.25-.24-.28-.19-.05-.36.03-.42.18-.02.04-.03.09-.03.14v1.3c0 .2.14.33.34.34h.01c.14 0 .29-.07.33-.25.01-.05.01-.1.02-.15v-.05c0-.03 0-.06 0-.09v-.09h1.17l.01.03c.03.1.01 4.9.01 4.93l-.01.04h-1.81l-.01-.06c0-.01 0-.03-.01-.05 0-.03 0-.06 0-.1s0-.08 0-.11c0-.18-.14-.31-.32-.32-.01 0-.01 0-.02 0-.12 0-.21.03-.28.11-.06.06-.09.15-.09.26v1.22c0 .14.04.23.11.29.11.1.25.12.39.06.13-.05.2-.16.2-.31 0-.05 0-.11 0-.16v-.11l.03-.01c.09-.03 1.69-.02 1.76-.01l.04.01v4.99h-6.89l-.01-.03c-.03-.09-.01-4.88-.01-4.92v-.03l.03-.01c.08-.03 1.68-.02 1.76-.01l.04.01v.1.16c0 .05.01.1.03.15.06.17.24.22.37.2.2-.03.3-.16.3-.39 0-.37 0-.75 0-1.12 0-.05 0-.1-.01-.16-.02-.17-.15-.29-.32-.29-.05 0-.1 0-.14.01-.14.04-.23.15-.23.29v.11.08.06.07h-.65c-.51 0-1.01 0-1.52 0-.12 0-.2.03-.27.1-.05.05-.08.12-.09.19-.01.04-.01.08-.01.13v5.3h-6.9l-.01-.03c0-.02-.01-.35.01-.47zm0-.75v-3.09h3.11l-.01.05c-.11.82-.46 1.52-1.04 2.09-.63.61-1.46.92-2.01.94z"/><path d="m-274.45 406.38.37-.37c.03-.03.07-.06.1-.09l.03-.03c.07-.06.1-.12.11-.19 0-.02.01-.03.01-.04v-.01-.09c-.01-.01-.01-.02-.01-.03-.01-.08-.04-.15-.13-.21-.03-.02-.06-.05-.09-.07-.28-.28-.56-.56-.83-.84-.06-.06-.13-.09-.21-.1-.01 0-.02 0-.03 0-.13 0-.26.08-.32.21s-.04.28.07.39l.23.23c.01.01.02.02.03.04l.06.09h-14.46l.07-.08c.03-.03.04-.05.06-.07l.08-.08c.05-.05.11-.11.15-.16.09-.11.11-.24.04-.37s-.18-.2-.32-.2c0 0 0 0-.01 0-.09 0-.17.04-.26.13l-.82.82c-.02.03-.05.05-.08.07-.08.06-.13.16-.13.28s.04.22.12.28c.03.02.06.05.08.08l.73.73.02.02c.08.08.15.15.24.2h.19l.05-.03c.11-.05.18-.15.2-.26s-.02-.22-.1-.31c-.05-.05-.09-.1-.14-.14l-.06-.06c-.01-.01-.02-.02-.03-.03l-.05-.05.03-.05.03.03v-.05h14.21.03l.1.02-.06.06c-.03.03-.05.05-.07.07l-.06.06c-.04.04-.09.09-.13.13-.09.08-.13.19-.11.31s.1.22.22.28c.01 0 .02.01.03.02h.21c.09-.05.16-.12.24-.2z"/><path d="m-292.48 404.02.47.47c.03.03.05.05.07.08.06.08.16.13.27.13h.01c.11 0 .22-.05.28-.13.03-.04.07-.08.12-.13l.63-.63.05-.05c.05-.04.09-.09.14-.14.13-.14.12-.34-.02-.48-.06-.06-.15-.1-.25-.1-.09 0-.17.04-.23.1-.05.06-.11.11-.17.17l-.05.05c-.01.01-.02.02-.04.04l-.1.1v-14.47l.09.07c.01.01.03.02.04.03l.1.1c.04.04.09.09.13.13.09.09.21.12.34.08.11-.03.21-.13.24-.25s0-.23-.09-.32c-.16-.17-.33-.33-.49-.49-.11-.11-.22-.22-.33-.33-.04-.04-.07-.07-.1-.11-.06-.08-.16-.13-.27-.13-.11-.01-.22.03-.28.11l-.07.07c-.05.05-.09.1-.14.15-.24.24-.47.47-.71.71-.09.09-.13.18-.13.27 0 .15.1.28.24.33.13.04.25.01.36-.09.04-.04.09-.08.13-.13l.09-.09.03-.03.09-.06v14.46l-.1-.09c-.02-.01-.03-.03-.04-.04-.03-.03-.06-.06-.09-.09-.04-.04-.07-.08-.11-.11-.07-.07-.16-.11-.25-.11-.01 0-.01 0-.02 0-.1.01-.19.06-.26.14-.06.07-.08.16-.07.25.01.08.05.15.13.23z"/></g></svg>