<?xml version="1.0" encoding="utf-8"?>
<!-- Generator: Adobe Illustrator 21.0.0, SVG Export Plug-In . SVG Version: 6.00 Build 0)  -->
<svg version="1.1" id="Layer_1" xmlns="http://www.w3.org/2000/svg" xmlns:xlink="http://www.w3.org/1999/xlink" x="0px" y="0px"
	 viewBox="-294 386.7 21.2 21.3" style="enable-background:new -294 386.7 21.2 21.3;" xml:space="preserve">
<style type="text/css">
	.st0{fill:none;stroke:#000000;stroke-width:7.2;stroke-miterlimit:10;}
</style>
<circle id="XMLID_372_" class="st0" cx="-273.87" cy="405.86" r="0"/>
<g>
	<g>
		<g>
			<path d="M-278.63,398.54v-8.74c0-1.1-0.89-1.98-1.99-1.99h-8.74c-0.11,0-0.21,0.04-0.28,0.12l-3.18,3.18
				c-0.07,0.07-0.12,0.18-0.12,0.28v13.51c0,1.1,0.89,1.98,1.99,1.99h10.33c1.1,0,1.98-0.89,1.99-1.99v-0.79h-0.79v0.79
				c0,0.66-0.53,1.19-1.19,1.19h-10.33c-0.66,0-1.19-0.53-1.19-1.19v-13.34l2.95-2.95h8.57c0.66,0,1.19,0.53,1.19,1.19v8.74H-278.63
				z"/>
		</g>
	</g>
	<g>
		<g>
			<path d="M-289.76,388.21v2.38c0,0.22-0.18,0.4-0.4,0.4h-0.79v0.79h0.79c0.66,0,1.19-0.53,1.19-1.19v-2.38H-289.76z"/>
		</g>
	</g>
	<g>
		<g>
			<path d="M-273.98,397.37l-1.1-1.1c-0.16-0.16-0.41-0.16-0.56,0l-6.05,6.05c-0.16,0.16-0.16,0.41,0,0.56l1.1,1.1
				c0.07,0.07,0.18,0.12,0.28,0.12c0.11,0,0.21-0.04,0.28-0.12l6.05-6.05C-273.83,397.78-273.83,397.53-273.98,397.37z
				 M-280.31,403.14l-0.54-0.54l5.49-5.49l0.54,0.54L-280.31,403.14z"/>
		</g>
	</g>
	<g>
		<g>
			<path d="M-281.02,403.31v-0.79h-0.79v1.19c0,0.22,0.18,0.4,0.4,0.4h1.19v-0.79H-281.02z"/>
		</g>
	</g>
	<g>
		<g>
			<path d="M-281.41,389.41h-0.79v0.79h0.79c0.22,0,0.4,0.18,0.4,0.4v0.79h0.79v-0.79C-280.22,389.94-280.76,389.41-281.41,389.41z"
				/>
		</g>
	</g>
	<g>
		<g>
			<path d="M-282.61,393.38h-6.36c-0.22,0-0.4,0.18-0.4,0.4v5.56c0,0.15,0.09,0.29,0.22,0.36l2.76,1.35c0.18,0.1,0.39,0.16,0.6,0.16
				l0,0c0.2,0,0.39-0.05,0.56-0.15l2.78-1.36c0.14-0.07,0.22-0.21,0.22-0.36v-5.56C-282.21,393.56-282.39,393.38-282.61,393.38z
				 M-283,399.09l-2.58,1.27c-0.13,0.07-0.29,0.07-0.42-0.01l-2.56-1.25v-4.92h5.56L-283,399.09L-283,399.09z"/>
		</g>
	</g>
	<g>
		<g>
			<path d="M-284.08,395.54l-2.1,2.1l-0.91-0.91l-0.56,0.56l1.19,1.19c0.07,0.07,0.18,0.12,0.28,0.12c0.11,0,0.21-0.04,0.28-0.12
				l2.38-2.38L-284.08,395.54z"/>
		</g>
	</g>
	<g>
		<g>
			<path d="M-284.99,403.31c-0.22,0-0.4-0.18-0.4-0.4v-0.79h-0.79v0.79c0,0.66,0.53,1.19,1.19,1.19h2.38v-0.79H-284.99z"/>
		</g>
	</g>
	<g>
		<g>
			<rect x="-283.8" y="389.41" width="0.79" height="0.79"/>
		</g>
	</g>
</g>
</svg>
