<?xml version="1.0" encoding="utf-8"?>
<!-- Generator: Adobe Illustrator 21.0.0, SVG Export Plug-In . SVG Version: 6.00 Build 0)  -->
<svg version="1.1" id="Layer_1" xmlns="http://www.w3.org/2000/svg" xmlns:xlink="http://www.w3.org/1999/xlink" x="0px" y="0px"
	 viewBox="-294 386.7 21.2 21.3" style="enable-background:new -294 386.7 21.2 21.3;" xml:space="preserve">
<style type="text/css">
	.st0{fill:#28336D;}
</style>
<g id="XMLID_576_">
	<rect id="XMLID_575_" x="-283.08" y="391.25" class="st0" width="5.68" height="6"/>
	<path id="XMLID_583_" class="st0" d="M-274.24,404.61h-1.58v-13.89c0.52,0,0.95-0.42,0.95-0.95v-1.58c0-0.17-0.14-0.32-0.32-0.32
		h-16.42c-0.17,0-0.32,0.14-0.32,0.32v1.58c0,0.52,0.42,0.95,0.95,0.95v13.89h-1.58c-0.17,0-0.32,0.14-0.32,0.32v1.58
		c0,0.17,0.14,0.32,0.32,0.32h18.32c0.17,0,0.32-0.14,0.32-0.32v-1.58C-273.93,404.75-274.07,404.61-274.24,404.61z M-291.29,389.77
		v-1.26h15.79v1.26c0,0.17-0.14,0.32-0.32,0.32h-15.16C-291.15,390.09-291.29,389.95-291.29,389.77z M-276.45,390.72v13.89h-13.89
		v-13.89H-276.45z M-274.56,406.19h-17.68v-0.95h17.68V406.19z"/>
	<path id="XMLID_577_" class="st0" d="M-277.08,391.03h-12.63c-0.17,0-0.32,0.14-0.32,0.32v12.63c0,0.17,0.14,0.32,0.32,0.32h12.63
		c0.17,0,0.32-0.14,0.32-0.32v-12.63C-276.77,391.18-276.91,391.03-277.08,391.03z M-283.72,403.67h-5.68v-6h5.68V403.67z
		 M-283.72,397.03h-5.68v-5.37h5.68V397.03z M-277.4,403.67h-5.68v-6h5.68V403.67z M-277.4,397.03h-5.68v-5.37h5.68V397.03z"/>
	<path id="XMLID_589_" class="st0" d="M-289.4,391.25v6h5.68v-6H-289.4z M-287.41,392.39l0.45,0.45l-1.26,1.26l-0.45-0.45
		L-287.41,392.39z M-288.23,395.68l-0.45-0.45l2.84-2.84l0.45,0.45L-288.23,395.68z"/>
</g>
</svg>
