<svg enable-background="new -294 386.7 21.2 21.3" viewBox="-294 386.7 21.2 21.3" xmlns="http://www.w3.org/2000/svg"><g fill="#28336d"><path d="m-274.18 405.25h-4.51l-.4-1.2c1.53-.09 2.72-1.35 2.72-2.89v-1.55h.28c.55 0 .99-.44.99-.99 0-.41-.25-.78-.64-.93v-.98c0-.2-.16-.36-.36-.36h-.9v-7.27c0-.2-.16-.36-.36-.36h-4.45c-.2 0-.36.16-.36.36v1.58c-1.09.17-1.9 1.13-1.91 2.24v.64c0 .2.16.36.36.36h3.81c.2 0 .36-.16.36-.36v-.64c0-1.11-.82-2.06-1.91-2.24v-1.22h3.73v6.91h-.91c-.2 0-.36.16-.36.36v.91h-11.72c-.55 0-1 .45-1 1s.45 1 1 1h.28v1.55c0 1.54 1.19 2.8 2.72 2.89l-.4 1.2h-4.51c-.2 0-.36.16-.36.36s.16.36.36.36h18.43c.2 0 .36-.16.36-.36s-.15-.37-.34-.37zm-9.18-12.07v-.28c0-.85.69-1.55 1.55-1.55.85 0 1.55.69 1.55 1.55v.28zm5.64 3.89v.55h-.55v-.55zm.72.56v-.55h.55v.55zm1.18.99c0 .15-.12.28-.28.28h-14.62c-.15 0-.28-.12-.28-.28 0-.15.12-.28.28-.28h14.62c.16.01.28.13.28.28zm-3.63 6.63h-.51l-.4-1.19h.51zm-1.27 0h-5.36l.4-1.19h4.57zm-5.72-1.18-.4 1.19h-.51l.4-1.19zm-3.27-4.45h12.63v1.55c0 1.2-.98 2.18-2.18 2.18h-8.26c-1.2 0-2.18-.98-2.18-2.18v-1.55z"/><path d="m-288.8 400.89h.64c.2 0 .36-.16.36-.36s-.16-.36-.36-.36h-.64c-.2 0-.36.16-.36.36s.16.36.36.36z"/><path d="m-286.9 400.89h1.91c.2 0 .36-.16.36-.36s-.16-.36-.36-.36h-1.91c-.2 0-.36.16-.36.36s.17.36.36.36z"/><path d="m-283.72 396.12c.2 0 .36-.16.36-.36v-.95c0-.2-.16-.36-.36-.36s-.36.16-.36.36v.95c0 .2.16.36.36.36z"/><path d="m-282.09 396.71v-.95c0-.2-.16-.36-.36-.36s-.36.16-.36.36v.95c0 .2.16.36.36.36s.36-.16.36-.36z"/><path d="m-280.82 395.76v-.95c0-.2-.16-.36-.36-.36s-.36.16-.36.36v.95c0 .2.16.36.36.36s.36-.16.36-.36z"/><path d="m-279.54 396.71v-.95c0-.2-.16-.36-.36-.36s-.36.16-.36.36v.95c0 .2.16.36.36.36s.36-.16.36-.36z"/></g></svg>